<svg xmlns="http://www.w3.org/2000/svg" xmlns:xlink="http://www.w3.org/1999/xlink" width="500" zoomAndPan="magnify" viewBox="0 0 375 374.999991" height="500" preserveAspectRatio="xMidYMid meet" version="1.0"><defs><g/><clipPath id="3e64261df6"><path d="M 91.835938 84.550781 L 283 84.550781 L 283 231.550781 L 91.835938 231.550781 Z M 91.835938 84.550781 " clip-rule="nonzero"/></clipPath><clipPath id="6f72ca6e0d"><path d="M 204 180 L 277 180 L 277 231.550781 L 204 231.550781 Z M 204 180 " clip-rule="nonzero"/></clipPath><clipPath id="7ae62ac6c4"><path d="M 236 230 L 239 230 L 239 231.550781 L 236 231.550781 Z M 236 230 " clip-rule="nonzero"/></clipPath><clipPath id="200fbdddb1"><path d="M 121 173 L 182 173 L 182 231.550781 L 121 231.550781 Z M 121 173 " clip-rule="nonzero"/></clipPath><clipPath id="3ce53a43e6"><path d="M 282 223 L 283.085938 223 L 283.085938 231.550781 L 282 231.550781 Z M 282 223 " clip-rule="nonzero"/></clipPath><clipPath id="9b4fd20513"><path d="M 203 226 L 227 226 L 227 231.550781 L 203 231.550781 Z M 203 226 " clip-rule="nonzero"/></clipPath><clipPath id="eff20d75b9"><path d="M 227 229 L 235 229 L 235 231.550781 L 227 231.550781 Z M 227 229 " clip-rule="nonzero"/></clipPath><clipPath id="2f2e5d7a74"><path d="M 45 212.664062 L 330 212.664062 L 330 268 L 45 268 Z M 45 212.664062 " clip-rule="nonzero"/></clipPath></defs><path fill="#0961f5" d="M 184.105469 164.703125 L 186.835938 163.640625 L 190.226562 161.113281 L 194.019531 158.988281 L 193.617188 157.519531 L 191.945312 157.316406 L 191.742188 157.519531 C 191.742188 157.316406 191.945312 157.316406 191.945312 157.316406 L 190.882812 156.054688 L 188.757812 155.394531 C 188.757812 155.394531 187.292969 154.128906 186.835938 156.054688 L 185.167969 155.851562 L 184.308594 155.445312 L 183.648438 155.851562 L 182.585938 156.710938 L 181.121094 156.304688 L 181.324219 157.164062 L 179.402344 156.761719 L 178.742188 156.761719 L 177.679688 157.824219 L 177.882812 159.289062 L 178.289062 160.554688 L 180.210938 161.214844 L 183.195312 161.011719 L 183.851562 161.667969 L 183.851562 161.871094 L 179.855469 162.074219 C 179.652344 165.058594 179.855469 159.746094 177.328125 162.074219 L 176.667969 158.683594 L 175.808594 158.277344 L 174.542969 159.542969 L 173.28125 160.605469 C 173.480469 160.605469 173.683594 160.808594 173.683594 161.011719 L 172.015625 162.476562 L 172.875 163.539062 L 172.671875 166.273438 L 174.140625 166.070312 L 175.402344 165.210938 L 174.746094 166.878906 L 174.746094 167.535156 L 173.683594 168.800781 L 171.355469 169.457031 L 170.699219 169.863281 L 173.886719 170.925781 L 176.011719 171.785156 L 178.136719 170.519531 L 179.402344 168.597656 L 180.867188 167.941406 L 182.335938 166.472656 C 182.132812 166.273438 182.132812 166.273438 182.132812 166.070312 L 182.335938 165.410156 Z M 184.105469 164.703125 " fill-opacity="1" fill-rule="nonzero"/><g clip-path="url(#3e64261df6)"><path fill="#0961f5" d="M 230.695312 150.082031 L 230.695312 144.367188 L 230.898438 132.933594 C 219.667969 125.953125 204.644531 122.363281 191.542969 121.703125 C 205.097656 121.300781 218.605469 124.234375 230.898438 130.40625 L 265.195312 116.847656 L 187.695312 84.675781 L 109.84375 115.582031 L 128.460938 123.425781 C 127.597656 128.484375 128.660156 134.65625 126.789062 141.839844 C 122.136719 142.699219 121.476562 149.019531 124.664062 150.539062 L 120.214844 166.222656 L 121.679688 166.222656 C 104.328125 182.710938 93.097656 205.578125 91.835938 231.226562 L 104.328125 231.226562 C 104.988281 216.808594 108.984375 203.300781 115.761719 191.414062 C 120.011719 184.230469 124.867188 177.855469 130.785156 172.140625 C 146.871094 156.054688 169.082031 146.085938 193.617188 146.085938 C 220.273438 146.085938 244.203125 157.722656 260.695312 176.136719 C 262.820312 178.664062 264.941406 181.449219 267.015625 184.179688 C 267.21875 184.585938 267.421875 185.039062 267.878906 185.445312 C 275.0625 196.21875 280.121094 208.613281 282.242188 222.121094 C 277.742188 190.707031 257.910156 164.046875 230.695312 150.082031 Z M 143.6875 143.761719 L 143.6875 150.539062 C 139.890625 152.460938 136.300781 154.789062 132.65625 157.316406 L 131.394531 150.742188 C 133.921875 148.617188 133.71875 145.226562 131.394531 143.101562 C 133.519531 136.121094 131.796875 130 132.65625 125.09375 L 143.886719 129.746094 Z M 143.6875 143.761719 " fill-opacity="1" fill-rule="nonzero"/></g><g clip-path="url(#6f72ca6e0d)"><path fill="#0961f5" d="M 262.007812 189.492188 L 260.085938 190.351562 L 259.882812 190.148438 C 261.148438 190.554688 261.351562 188.882812 261.351562 187.820312 C 259.429688 185.292969 257.558594 182.761719 255.433594 180.4375 L 255.230469 183.824219 L 256.496094 186.152344 L 257.152344 187.214844 L 250.375 184.886719 L 250.375 185.746094 L 252.296875 187.671875 L 251.03125 187.671875 L 247.84375 188.933594 L 247.640625 187.871094 L 244.050781 191.058594 L 241.722656 188.933594 C 239.800781 189.339844 241.320312 188.277344 241.320312 190.855469 L 240.914062 192.324219 L 239.449219 194.449219 L 237.523438 194.449219 L 237.929688 195.714844 L 236.867188 195.914062 L 236.007812 195.257812 L 233.882812 192.273438 C 234.539062 192.273438 239.398438 194.601562 239.800781 191.414062 L 233.679688 188.226562 L 232.414062 187.570312 L 230.949219 187.367188 L 230.089844 186.304688 L 228.824219 186.507812 L 227.15625 186.304688 L 226.292969 186.707031 L 226.292969 186.507812 L 225.890625 187.164062 L 223.96875 188.023438 L 223.765625 188.023438 C 223.5625 188.023438 223.359375 188.226562 223.109375 188.429688 L 221.84375 189.695312 L 220.933594 189.695312 L 220.933594 190.351562 L 222.398438 190.351562 L 221.539062 191.007812 L 220.679688 192.273438 L 219.210938 195.460938 L 217.289062 197.382812 L 216.226562 198.242188 L 215.367188 199.101562 L 214.964844 202.492188 L 215.164062 203.554688 L 217.695312 203.960938 C 219.617188 201.226562 219.617188 205.019531 220.679688 206.285156 L 220.476562 206.691406 L 220.273438 207.957031 L 219.871094 207.957031 C 219.871094 207.957031 219.871094 207.957031 219.667969 207.957031 L 219.261719 206.285156 L 218.605469 205.019531 C 215.621094 206.488281 219.261719 209.878906 217.339844 209.472656 C 215.417969 209.066406 214.355469 211.597656 212.890625 212.457031 L 212.027344 213.519531 L 210.5625 213.722656 L 209.296875 214.582031 L 209.09375 215.847656 C 211.015625 216.25 211.421875 221.160156 208.691406 219.894531 L 204.894531 220.097656 L 204.238281 220.5 L 204.035156 224.75 L 205.707031 226.21875 C 206.566406 226.21875 206.363281 227.886719 207.628906 226.875 L 210.15625 226.21875 L 211.015625 225.558594 L 211.675781 224.496094 L 214.003906 221.308594 C 214.003906 218.78125 216.125 220.90625 216.53125 220.246094 L 219.71875 220.449219 L 219.921875 220.449219 L 222.046875 222.121094 C 223.714844 222.523438 226.496094 225.710938 222.046875 225.308594 L 223.96875 225.964844 L 224.828125 225.308594 L 226.09375 223.382812 L 224.625 221.917969 L 223.765625 221.511719 C 223.765625 221.308594 219.769531 218.527344 221.84375 217.921875 L 223.109375 218.78125 L 225.636719 220.703125 L 227.304688 223.433594 L 228.570312 225.105469 C 228.570312 225.308594 228.570312 225.308594 228.570312 225.308594 L 228.570312 225.507812 L 230.039062 226.570312 L 231.304688 225.308594 L 230.039062 223.183594 L 231.101562 222.523438 C 231.304688 222.523438 233.226562 221.664062 232.566406 223.992188 L 232.566406 224.851562 L 233.226562 225.257812 L 233.628906 226.117188 L 236.613281 226.773438 C 237.273438 225.710938 238.285156 228.039062 239.800781 226.570312 L 241.066406 226.570312 L 240.660156 229.304688 C 240.257812 230.367188 239.800781 230.972656 239.597656 231.226562 L 276.425781 231.226562 C 275.566406 215.542969 270.507812 201.175781 262.261719 188.882812 Z M 223.058594 188.429688 C 223.109375 188.480469 223.109375 188.480469 223.109375 188.480469 C 223.160156 188.480469 223.109375 188.480469 223.058594 188.429688 Z M 223.058594 188.429688 " fill-opacity="1" fill-rule="nonzero"/></g><path fill="#0961f5" d="M 282.292969 222.121094 C 282.34375 222.421875 282.394531 222.726562 282.394531 223.03125 C 282.34375 222.777344 282.34375 222.523438 282.292969 222.320312 C 282.292969 222.222656 282.292969 222.171875 282.292969 222.121094 Z M 282.292969 222.121094 " fill-opacity="1" fill-rule="nonzero"/><g clip-path="url(#7ae62ac6c4)"><path fill="#0961f5" d="M 236.410156 231.175781 L 238.335938 231.175781 C 237.878906 231.175781 237.222656 230.769531 236.410156 231.175781 Z M 236.410156 231.175781 " fill-opacity="1" fill-rule="nonzero"/></g><g clip-path="url(#200fbdddb1)"><path fill="#0961f5" d="M 166.550781 185.039062 L 165.285156 186.101562 L 164.023438 186.304688 L 164.222656 183.773438 L 162.960938 184.835938 L 162.554688 182.710938 L 163.414062 181.648438 L 163.414062 178.058594 L 165.085938 176.996094 L 167.410156 174.667969 C 166.148438 174.464844 165.285156 172.34375 163.414062 176.136719 L 161.949219 178.464844 C 161.949219 178.464844 161.949219 178.664062 161.949219 178.867188 L 160.480469 182.257812 L 160.480469 182.460938 C 158.8125 182.460938 159.417969 180.789062 158.558594 182.054688 L 157.292969 183.117188 C 157.496094 183.320312 157.953125 183.523438 158.152344 183.976562 L 156.027344 184.835938 L 154.105469 184.433594 L 152.84375 182.511719 L 150.3125 182.511719 L 151.78125 183.167969 L 149.859375 184.835938 L 149.453125 185.039062 L 148.1875 183.371094 L 146.265625 182.105469 L 145.859375 180.636719 L 141.613281 178.109375 L 140.953125 177.25 C 137.96875 179.375 140.953125 174.71875 139.488281 175.328125 L 138.019531 176.390625 L 135.289062 176.390625 C 129.976562 181.699219 125.324219 187.820312 121.527344 194.398438 L 121.933594 195.054688 L 122.589844 195.257812 L 121.730469 196.726562 L 122.390625 197.585938 C 122.589844 197.382812 122.589844 197.382812 122.792969 197.382812 L 123.449219 197.179688 C 123.449219 197.179688 123.652344 197.382812 123.652344 197.585938 L 122.792969 197.382812 L 122.390625 197.585938 L 122.589844 198.648438 L 123.449219 199.710938 L 123.449219 199.910156 L 123.652344 199.910156 L 123.855469 200.316406 L 124.261719 201.175781 L 123.601562 202.644531 L 123.804688 203.046875 L 124.210938 204.109375 L 124.613281 205.171875 C 124.613281 205.171875 124.613281 205.171875 124.613281 205.375 L 124.414062 206.234375 L 126.335938 207.90625 L 126.535156 208.765625 L 125.273438 207.5 L 123.804688 207.5 L 125.929688 210.03125 L 125.070312 213.417969 L 123.601562 218.074219 L 123.199219 219.996094 L 123.855469 222.726562 L 124.058594 224.648438 L 126.585938 227.378906 L 128.257812 231.175781 L 129.320312 231.175781 C 129.117188 230.113281 129.117188 229.503906 129.976562 230.113281 L 130.632812 231.175781 L 157.292969 231.175781 C 157.292969 230.515625 157.699219 229.707031 158.964844 229.503906 L 161.695312 227.582031 L 162.554688 225.257812 L 162.757812 224.597656 L 163.820312 223.332031 L 165.945312 221.410156 L 166.148438 221.007812 L 167.816406 219.742188 C 168.675781 217.210938 171.207031 218.273438 171.609375 217.414062 L 172.46875 217.210938 C 171.003906 218.074219 172.066406 219.742188 173.328125 218.074219 L 176.0625 217.210938 L 177.125 216.351562 L 175.859375 216.351562 L 175.203125 216.554688 C 175 216.554688 174.796875 216.554688 174.796875 216.351562 L 175.203125 216.351562 L 174.140625 216.152344 L 173.078125 214.226562 C 175.402344 213.367188 173.28125 211.902344 170.546875 213.367188 L 173.734375 211.699219 L 179.046875 211.042969 L 181.574219 209.574219 L 180.96875 208.105469 L 180.109375 207.449219 L 179.046875 205.984375 L 178.390625 204.058594 L 176.921875 199.203125 C 174.191406 203.859375 173.128906 200.46875 173.128906 200.46875 C 173.328125 197.484375 174.796875 198.800781 172.46875 197.484375 L 170.800781 195.816406 L 167.816406 196.472656 L 167.410156 197.535156 L 167.207031 199.203125 C 165.285156 200.265625 166.347656 201.125 166.804688 202.796875 C 167.207031 204.921875 163.617188 205.121094 163.617188 205.78125 L 162.554688 209.574219 L 161.289062 207.449219 C 163.210938 203.65625 160.429688 205.121094 159.621094 204.261719 L 155.828125 201.53125 C 155.421875 201.734375 155.167969 201.734375 154.765625 201.734375 L 154.5625 199.40625 L 157.953125 193.890625 L 159.214844 192.828125 L 161.136719 192.171875 L 164.125 189.84375 L 162.859375 193.03125 L 163.921875 193.691406 C 166.246094 191.160156 165.386719 194.953125 167.109375 193.285156 L 164.984375 190.300781 L 164.984375 189.644531 L 164.324219 189.644531 L 165.183594 188.984375 L 168.574219 186.859375 L 168.574219 185.796875 L 169.636719 184.535156 L 168.777344 183.671875 C 168.777344 183.671875 168.574219 183.472656 168.574219 183.269531 C 168.371094 183.269531 168.171875 183.269531 167.917969 183.066406 Z M 170.144531 213.621094 C 170.144531 213.824219 170.144531 213.824219 170.144531 213.824219 L 169.738281 214.226562 L 169.082031 214.429688 Z M 170.144531 213.621094 " fill-opacity="1" fill-rule="nonzero"/></g><g clip-path="url(#3ce53a43e6)"><path fill="#0961f5" d="M 282.394531 223.03125 C 282.75 225.761719 282.953125 228.492188 283.15625 231.175781 C 283.003906 228.441406 282.75 225.710938 282.394531 223.03125 Z M 282.394531 223.03125 " fill-opacity="1" fill-rule="nonzero"/></g><path fill="#0961f5" d="M 181.574219 191.160156 L 181.171875 189.894531 C 181.171875 189.695312 181.171875 189.695312 181.171875 189.695312 L 180.511719 189.289062 L 180.109375 188.429688 L 178.4375 186.960938 L 179.5 186.304688 L 179.703125 185.242188 L 177.78125 182.511719 C 178.640625 180.839844 175.453125 182.105469 176.316406 180.839844 L 175.910156 179.574219 L 175.050781 178.917969 C 176.972656 179.121094 175.453125 176.996094 175.050781 176.996094 L 173.378906 177.199219 L 169.585938 178.664062 L 168.929688 179.929688 L 168.726562 178.664062 L 170.851562 176.339844 C 171.257812 176.136719 170.445312 174.667969 167.867188 176.539062 L 165.742188 180.132812 L 165.335938 180.992188 L 166.804688 182.660156 L 167.867188 183.066406 C 168.070312 183.066406 168.269531 183.066406 168.523438 183.269531 L 171.257812 183.925781 L 172.117188 183.066406 L 173.378906 185.191406 L 172.976562 186.050781 L 173.378906 186.457031 L 174.441406 186.859375 L 174.441406 188.984375 L 172.773438 191.109375 L 170.246094 191.109375 C 169.839844 190.90625 167.714844 193.234375 170.902344 192.578125 C 173.429688 192.171875 172.570312 194.902344 174.089844 195.308594 L 176.820312 196.371094 L 175.757812 194.449219 L 177.882812 196.371094 L 178.539062 194.449219 L 177.679688 192.324219 L 177.277344 191.058594 L 178.945312 192.324219 Z M 170.597656 183.574219 C 170.800781 183.574219 170.800781 183.574219 171.003906 183.773438 C 170.800781 183.773438 170.597656 183.773438 170.597656 183.574219 Z M 172.066406 182.914062 C 171.863281 182.914062 171.863281 182.710938 172.066406 182.710938 Z M 172.066406 182.914062 " fill-opacity="1" fill-rule="nonzero"/><path fill="#0961f5" d="M 207.832031 186.707031 L 208.234375 185.445312 C 209.296875 187.972656 210.359375 186.707031 210.359375 186.507812 C 210.5625 183.523438 207.628906 182.914062 208.691406 182.257812 L 209.953125 183.722656 L 210.359375 183.320312 L 209.703125 182.054688 L 209.703125 181.851562 L 211.625 180.789062 L 212.484375 179.527344 C 211.21875 178.464844 212.6875 179.121094 212.6875 177.601562 L 212.484375 176.742188 L 211.828125 176.339844 L 211.828125 175.730469 C 213.496094 174.0625 213.089844 177.652344 213.292969 176.792969 L 213.496094 174.464844 L 212.636719 173 L 213.496094 171.53125 L 215.164062 167.941406 L 215.164062 167.082031 L 216.835938 166.222656 C 216.632812 166.019531 219.160156 165.816406 217.898438 164.550781 C 216.226562 162.628906 215.164062 164.957031 214.304688 164.347656 L 212.636719 165.410156 L 211.167969 166.273438 L 211.828125 165.867188 C 211.828125 165.664062 215.417969 162.882812 212.890625 163.136719 L 210.765625 163.996094 L 210.765625 162.933594 L 208.640625 162.730469 L 214.355469 161.871094 L 212.230469 160.605469 L 212.027344 159.542969 L 209.5 159.339844 L 206.769531 159.746094 L 211.828125 158.886719 C 211.625 158.480469 207.375 156.355469 205.90625 158.226562 L 205.90625 158.429688 L 203.582031 158.429688 L 202.316406 159.898438 L 201.253906 161.363281 L 200.847656 162.023438 C 201.050781 161.617188 198.925781 157.976562 198.925781 161.617188 L 198.066406 162.023438 L 197.664062 160.351562 L 197.257812 161.617188 L 197.257812 161.820312 L 197.054688 161.820312 L 196.851562 162.023438 L 196.652344 162.226562 L 197.054688 161.820312 L 197.257812 161.617188 C 196.601562 160.554688 199.382812 159.695312 195.589844 160.152344 L 193.917969 161.011719 L 192.652344 161.414062 C 192.25 163.742188 191.1875 161.617188 190.125 162.882812 C 189.921875 163.085938 189.46875 163.285156 189.265625 163.285156 L 189.0625 163.285156 C 188 164.550781 187.59375 164.550781 189.0625 164.957031 L 187.59375 166.878906 C 187.191406 166.675781 180.816406 167.082031 183.597656 169.40625 L 185.722656 170.46875 L 182.738281 171.53125 L 182.941406 172.796875 L 185.066406 173.65625 L 187.796875 174.316406 L 188.859375 176.640625 L 189.265625 177.703125 L 189.265625 180.890625 L 188.605469 182.15625 L 188.808594 182.359375 L 188.40625 183.421875 L 190.074219 183.21875 L 189.871094 183.421875 L 190.074219 183.421875 L 190.074219 184.886719 L 188.558594 184.886719 L 188.558594 187.214844 L 189.214844 185.746094 L 190.480469 186.808594 L 190.277344 187.671875 L 188.808594 188.328125 C 188.808594 188.53125 188.808594 188.730469 188.808594 188.984375 L 187.746094 191.109375 L 187.746094 194.5 L 188.605469 194.5 L 188.40625 196.421875 L 188.605469 197.484375 L 189.265625 199.152344 L 190.730469 199.558594 C 191.136719 199.355469 192.402344 202.949219 193.464844 199.558594 L 194.324219 197.636719 L 196.246094 194.246094 L 198.371094 193.589844 L 201.960938 191.261719 C 203.023438 189.339844 204.695312 191.464844 209.804688 187.671875 Z M 207.832031 186.707031 " fill-opacity="1" fill-rule="nonzero"/><g clip-path="url(#9b4fd20513)"><path fill="#0961f5" d="M 220.324219 229.304688 C 218.65625 228.644531 221.183594 228.898438 220.121094 227.179688 L 220.121094 226.320312 L 218.199219 226.320312 L 210.5625 227.785156 L 206.769531 227.582031 L 204.035156 230.566406 L 203.835938 231.226562 L 226.699219 231.226562 L 224.171875 230.566406 Z M 220.324219 229.304688 " fill-opacity="1" fill-rule="nonzero"/></g><g clip-path="url(#eff20d75b9)"><path fill="#0961f5" d="M 227.914062 231.175781 L 234.085938 231.175781 C 231.304688 230.566406 227.507812 228.847656 227.914062 231.175781 Z M 227.914062 231.175781 " fill-opacity="1" fill-rule="nonzero"/></g><path fill="#ffffff" d="M 46.289062 231.40625 C 46.289062 231.40625 57.300781 228.453125 67.277344 231.214844 L 67.46875 224.1875 C 67.46875 224.1875 65.839844 221.011719 84.605469 218.300781 C 84.605469 218.300781 103.363281 215.484375 110.679688 215.59375 L 143.0625 213.835938 L 156.59375 213.597656 L 198.757812 213.03125 L 227.773438 213.835938 C 227.773438 213.835938 257.214844 214.453125 280.859375 217.015625 C 304.507812 219.582031 307.261719 223.429688 307.261719 223.429688 L 307.734375 231.40625 C 307.734375 231.40625 317.46875 228.269531 329.007812 231.59375 L 320.652344 245.507812 L 329.007812 261.367188 C 329.007812 261.367188 324.828125 259.136719 319.703125 260.273438 C 319.703125 260.273438 310.347656 261.511719 306.027344 264.074219 C 306.027344 264.074219 300.421875 266.6875 291.734375 267.257812 C 291.734375 267.257812 281.476562 269.867188 282.472656 254.054688 L 282.234375 246.457031 L 270.933594 245.316406 L 244.0625 243.609375 L 215.285156 242.753906 L 185.890625 242.46875 L 158.492188 242.847656 L 128.054688 243.941406 C 128.054688 243.941406 102.273438 245.035156 92.824219 246.550781 L 92.539062 257.09375 C 92.539062 257.09375 93.003906 265.859375 87.171875 266.832031 C 87.171875 266.832031 84.65625 268.15625 77.769531 266.449219 C 77.769531 266.449219 59.914062 261.273438 59.773438 261.179688 C 59.632812 261.082031 52.652344 258.851562 46.289062 261.035156 L 54.363281 245.605469 L 46.289062 232.023438 L 46.289062 231.40625 " fill-opacity="1" fill-rule="nonzero"/><g clip-path="url(#2f2e5d7a74)"><path fill="#0961f5" d="M 305.929688 263.304688 C 297.804688 265.945312 290.128906 268.441406 286.101562 265.515625 C 284.046875 264.023438 283.046875 261.183594 283.046875 256.84375 C 283.046875 256.839844 283.046875 256.839844 283.046875 256.835938 C 283.046875 256.835938 283.046875 256.832031 283.046875 256.832031 L 283.042969 256.507812 C 283.03125 254.730469 283.402344 253.601562 284.148438 253.152344 C 285.917969 252.089844 289.976562 254.382812 293.898438 256.601562 C 297.519531 258.652344 301.234375 260.753906 304.003906 260.753906 C 304.765625 260.753906 305.457031 260.59375 306.058594 260.226562 C 307.601562 259.285156 308.28125 257.164062 308.144531 253.742188 L 308.144531 231.917969 C 308.613281 231.421875 312.070312 230.71875 318.273438 230.71875 C 324.144531 230.71875 327.558594 231.351562 328.300781 231.835938 L 320.078125 245.089844 C 319.96875 245.269531 319.960938 245.488281 320.058594 245.671875 L 327.675781 260.132812 C 321.90625 258.109375 313.796875 260.746094 305.929688 263.304688 Z M 306.972656 253.742188 C 306.972656 253.746094 306.976562 253.75 306.976562 253.753906 C 306.976562 253.757812 306.972656 253.761719 306.972656 253.765625 C 307.09375 256.695312 306.582031 258.53125 305.445312 259.226562 C 303.269531 260.554688 298.597656 257.914062 294.476562 255.582031 C 290.0625 253.089844 285.898438 250.730469 283.542969 252.148438 C 283.332031 252.277344 283.144531 252.429688 282.972656 252.605469 L 282.878906 247.214844 C 305.011719 249.828125 306.972656 252.789062 306.972656 253.742188 Z M 187.484375 241.980469 C 156.011719 241.980469 126.679688 242.972656 104.886719 244.777344 C 78.753906 246.9375 70.5625 249.679688 67.996094 251.648438 L 67.996094 250.132812 C 68.890625 249.003906 72.671875 246.355469 88.609375 244.421875 C 88.769531 244.402344 88.882812 244.253906 88.863281 244.09375 C 88.84375 243.933594 88.699219 243.820312 88.539062 243.839844 C 74.554688 245.535156 69.679688 247.800781 67.996094 249.289062 L 67.996094 247.261719 C 68.847656 246.054688 72.152344 243.386719 84.949219 241.972656 C 85.109375 241.957031 85.226562 241.8125 85.207031 241.652344 C 85.191406 241.492188 85.046875 241.375 84.882812 241.394531 C 73.632812 242.632812 69.511719 244.867188 67.996094 246.367188 L 67.996094 244.269531 C 68.890625 243.140625 72.671875 240.492188 88.609375 238.558594 C 88.769531 238.539062 88.882812 238.390625 88.863281 238.230469 C 88.84375 238.070312 88.699219 237.957031 88.539062 237.976562 C 74.554688 239.671875 69.679688 241.9375 67.996094 243.425781 L 67.996094 241.398438 C 68.847656 240.191406 72.152344 237.523438 84.949219 236.109375 C 85.109375 236.09375 85.226562 235.949219 85.207031 235.789062 C 85.191406 235.628906 85.046875 235.511719 84.882812 235.53125 C 73.632812 236.769531 69.511719 239.003906 67.996094 240.503906 L 67.996094 238.40625 C 68.890625 237.277344 72.671875 234.628906 88.609375 232.695312 C 88.769531 232.675781 88.882812 232.527344 88.863281 232.367188 C 88.84375 232.207031 88.699219 232.09375 88.539062 232.113281 C 74.554688 233.808594 69.679688 236.074219 67.996094 237.5625 L 67.996094 235.535156 C 68.847656 234.328125 72.152344 231.660156 84.949219 230.25 C 85.109375 230.234375 85.226562 230.085938 85.207031 229.925781 C 85.191406 229.765625 85.046875 229.648438 84.882812 229.667969 C 73.632812 230.90625 69.511719 233.144531 67.996094 234.640625 L 67.996094 232.542969 C 68.890625 231.414062 72.671875 228.765625 88.609375 226.832031 C 88.769531 226.8125 88.882812 226.664062 88.863281 226.503906 C 88.84375 226.34375 88.699219 226.230469 88.539062 226.25 C 74.554688 227.945312 69.679688 230.210938 67.996094 231.699219 L 67.996094 229.671875 C 68.847656 228.464844 72.152344 225.796875 84.949219 224.386719 C 85.109375 224.371094 85.226562 224.222656 85.207031 224.0625 C 85.191406 223.902344 85.046875 223.785156 84.882812 223.804688 C 73.632812 225.042969 69.511719 227.28125 67.996094 228.777344 L 67.996094 226.679688 C 68.890625 225.550781 72.671875 222.902344 88.609375 220.96875 C 88.769531 220.949219 88.882812 220.804688 88.863281 220.640625 C 88.84375 220.484375 88.699219 220.367188 88.539062 220.386719 C 74.554688 222.085938 69.679688 224.347656 67.996094 225.835938 L 67.996094 224.425781 C 67.996094 223.757812 68.957031 222.003906 77.851562 220.113281 C 84.167969 218.769531 93.292969 217.597656 104.984375 216.628906 C 126.746094 214.832031 156.042969 213.835938 187.484375 213.835938 C 218.925781 213.835938 248.226562 214.832031 269.988281 216.628906 C 304.304688 219.46875 306.972656 223.316406 306.972656 224.425781 L 306.972656 225.824219 C 305.277344 224.335938 300.390625 222.078125 286.445312 220.386719 C 286.289062 220.367188 286.140625 220.480469 286.121094 220.640625 C 286.101562 220.804688 286.214844 220.949219 286.378906 220.96875 C 302.144531 222.882812 306.019531 225.472656 306.972656 226.664062 L 306.972656 228.742188 C 306.636719 228.414062 306.175781 228.046875 305.535156 227.664062 C 302.59375 225.90625 297.402344 224.609375 290.101562 223.804688 C 289.9375 223.785156 289.792969 223.902344 289.777344 224.0625 C 289.761719 224.222656 289.875 224.371094 290.035156 224.386719 C 302.773438 225.792969 306.105469 228.429688 306.972656 229.648438 L 306.972656 231.6875 C 305.277344 230.199219 300.390625 227.941406 286.445312 226.25 C 286.289062 226.230469 286.140625 226.34375 286.121094 226.503906 C 286.101562 226.664062 286.214844 226.8125 286.378906 226.832031 C 302.144531 228.746094 306.019531 231.335938 306.972656 232.527344 L 306.972656 234.605469 C 306.636719 234.277344 306.175781 233.910156 305.535156 233.527344 C 302.59375 231.769531 297.402344 230.472656 290.101562 229.667969 C 289.9375 229.648438 289.792969 229.765625 289.777344 229.925781 C 289.761719 230.085938 289.875 230.234375 290.035156 230.25 C 302.773438 231.65625 306.105469 234.292969 306.972656 235.511719 L 306.972656 237.550781 C 305.277344 236.058594 300.390625 233.804688 286.445312 232.113281 C 286.289062 232.097656 286.140625 232.207031 286.121094 232.367188 C 286.101562 232.527344 286.214844 232.675781 286.378906 232.695312 C 302.144531 234.609375 306.019531 237.199219 306.972656 238.390625 L 306.972656 240.46875 C 306.636719 240.136719 306.175781 239.773438 305.535156 239.390625 C 302.59375 237.632812 297.402344 236.335938 290.101562 235.53125 C 289.9375 235.511719 289.792969 235.628906 289.777344 235.789062 C 289.761719 235.949219 289.875 236.09375 290.035156 236.109375 C 302.773438 237.515625 306.105469 240.152344 306.972656 241.371094 L 306.972656 243.414062 C 305.277344 241.921875 300.390625 239.667969 286.445312 237.976562 C 286.289062 237.957031 286.140625 238.070312 286.121094 238.230469 C 286.101562 238.390625 286.214844 238.539062 286.378906 238.558594 C 302.144531 240.472656 306.019531 243.0625 306.972656 244.253906 L 306.972656 246.332031 C 306.636719 246 306.175781 245.636719 305.535156 245.253906 C 302.59375 243.496094 297.402344 242.199219 290.101562 241.394531 C 289.9375 241.375 289.792969 241.492188 289.777344 241.652344 C 289.761719 241.8125 289.875 241.957031 290.035156 241.972656 C 302.773438 243.378906 306.105469 246.015625 306.972656 247.234375 L 306.972656 249.273438 C 305.277344 247.785156 300.390625 245.53125 286.445312 243.839844 C 286.289062 243.820312 286.140625 243.933594 286.121094 244.09375 C 286.101562 244.253906 286.214844 244.402344 286.378906 244.421875 C 302.144531 246.335938 306.019531 248.925781 306.972656 250.117188 L 306.972656 251.648438 C 304.40625 249.679688 296.214844 246.9375 270.085938 244.777344 C 248.292969 242.972656 218.957031 241.980469 187.484375 241.980469 Z M 92.019531 252.605469 C 91.847656 252.429688 91.65625 252.277344 91.449219 252.148438 C 89.089844 250.730469 84.921875 253.089844 80.503906 255.582031 C 76.378906 257.914062 71.703125 260.5625 69.527344 259.226562 C 68.390625 258.53125 67.875 256.695312 67.996094 253.765625 C 67.996094 253.761719 67.996094 253.757812 67.996094 253.753906 C 67.996094 253.75 67.996094 253.746094 67.996094 253.742188 C 67.996094 253.074219 68.957031 251.316406 77.851562 249.425781 C 81.621094 248.625 86.394531 247.882812 92.113281 247.214844 Z M 88.890625 265.515625 C 84.863281 268.441406 77.183594 265.945312 69.058594 263.304688 C 61.191406 260.746094 53.078125 258.109375 47.3125 260.132812 L 54.933594 245.671875 C 55.03125 245.488281 55.023438 245.269531 54.914062 245.089844 L 46.679688 231.824219 C 48.019531 230.792969 58.222656 229.960938 64.246094 231.027344 C 66.210938 231.375 66.707031 231.785156 66.824219 231.925781 L 66.824219 253.742188 C 66.6875 257.164062 67.371094 259.28125 68.914062 260.226562 C 69.511719 260.59375 70.207031 260.753906 70.972656 260.753906 C 73.742188 260.753906 77.460938 258.652344 81.082031 256.601562 C 85.007812 254.382812 89.074219 252.085938 90.839844 253.152344 C 91.585938 253.601562 91.957031 254.730469 91.949219 256.503906 L 91.941406 256.832031 C 91.941406 256.832031 91.945312 256.835938 91.945312 256.835938 C 91.945312 256.839844 91.941406 256.839844 91.941406 256.84375 C 91.941406 261.183594 90.945312 264.023438 88.890625 265.515625 Z M 321.25 245.421875 L 329.484375 232.15625 C 329.542969 232.0625 329.570312 231.953125 329.570312 231.847656 C 329.570312 229.945312 323.425781 229.546875 318.273438 229.546875 C 312.515625 229.546875 309.5625 230.023438 308.144531 230.632812 L 308.144531 224.425781 C 308.144531 222.988281 308.144531 218.609375 270.085938 215.460938 C 248.292969 213.660156 218.957031 212.664062 187.484375 212.664062 C 156.011719 212.664062 126.679688 213.660156 104.886719 215.460938 C 66.824219 218.609375 66.824219 222.988281 66.824219 224.425781 L 66.824219 230.574219 C 63.558594 229.023438 54.488281 229.253906 50.5625 229.71875 C 46.03125 230.257812 45.417969 231.09375 45.417969 231.847656 C 45.417969 231.953125 45.449219 232.0625 45.503906 232.15625 L 53.738281 245.421875 L 45.484375 261.089844 C 45.363281 261.320312 45.40625 261.601562 45.59375 261.78125 C 45.777344 261.964844 46.0625 262 46.289062 261.875 C 51.640625 258.875 60.3125 261.691406 68.695312 264.417969 C 74.304688 266.242188 79.707031 268 84.019531 268 C 86.183594 268 88.074219 267.558594 89.578125 266.464844 C 91.957031 264.734375 93.113281 261.59375 93.117188 256.851562 C 93.117188 256.738281 93.121094 256.628906 93.121094 256.523438 L 93.289062 247.078125 C 96.84375 246.671875 100.742188 246.292969 104.984375 245.945312 C 126.746094 244.144531 156.042969 243.152344 187.484375 243.152344 C 218.925781 243.152344 248.226562 244.144531 269.988281 245.945312 C 274.394531 246.308594 278.277344 246.691406 281.703125 247.078125 L 281.867188 256.523438 C 281.871094 256.632812 281.875 256.742188 281.875 256.859375 C 281.878906 261.597656 283.035156 264.738281 285.410156 266.464844 C 286.917969 267.558594 288.808594 268 290.96875 268 C 295.285156 268 300.6875 266.242188 306.292969 264.417969 C 314.675781 261.691406 323.347656 258.875 328.699219 261.875 C 328.929688 262 329.210938 261.964844 329.394531 261.78125 C 329.582031 261.601562 329.625 261.320312 329.503906 261.089844 L 321.25 245.421875 " fill-opacity="1" fill-rule="nonzero"/></g><g fill="#202258" fill-opacity="1"><g transform="translate(113.713994, 236.83166)"><g><path d="M 8.9375 -16.21875 C 9.070312 -16.226562 9.148438 -16.171875 9.171875 -16.046875 L 9.53125 -12.84375 C 9.550781 -12.707031 9.492188 -12.632812 9.359375 -12.625 L 7.109375 -12.359375 C 6.984375 -12.347656 6.910156 -12.410156 6.890625 -12.546875 L 6.8125 -13.3125 L 2.75 -12.84375 L 3.171875 -9.1875 L 6.34375 -9.546875 C 6.46875 -9.566406 6.535156 -9.503906 6.546875 -9.359375 L 6.8125 -7.140625 C 6.820312 -7.015625 6.765625 -6.941406 6.640625 -6.921875 L 3.46875 -6.5625 L 3.890625 -2.921875 L 4.640625 -3 C 4.785156 -3.019531 4.863281 -2.96875 4.875 -2.84375 L 5.140625 -0.59375 C 5.160156 -0.445312 5.097656 -0.363281 4.953125 -0.34375 L 0.828125 0.125 C 0.703125 0.144531 0.628906 0.0820312 0.609375 -0.0625 L 0.34375 -2.3125 C 0.332031 -2.4375 0.390625 -2.507812 0.515625 -2.53125 L 1.25 -2.609375 L 0.109375 -12.5 L -0.625 -12.421875 C -0.75 -12.398438 -0.820312 -12.460938 -0.84375 -12.609375 L -1.09375 -14.859375 C -1.113281 -14.984375 -1.0625 -15.054688 -0.9375 -15.078125 Z M 8.9375 -16.21875 "/></g></g></g><g fill="#202258" fill-opacity="1"><g transform="translate(125.108108, 235.518757)"><g><path d="M 3.8125 -15.546875 C 4.675781 -15.628906 5.476562 -15.492188 6.21875 -15.140625 C 6.96875 -14.785156 7.585938 -14.273438 8.078125 -13.609375 C 8.578125 -12.953125 8.867188 -12.191406 8.953125 -11.328125 L 9.515625 -5.453125 C 9.597656 -4.585938 9.457031 -3.78125 9.09375 -3.03125 C 8.738281 -2.289062 8.226562 -1.675781 7.5625 -1.1875 C 6.90625 -0.695312 6.144531 -0.410156 5.28125 -0.328125 C 4.425781 -0.242188 3.625 -0.378906 2.875 -0.734375 C 2.125 -1.085938 1.503906 -1.59375 1.015625 -2.25 C 0.535156 -2.914062 0.253906 -3.679688 0.171875 -4.546875 L -0.390625 -10.421875 C -0.472656 -11.285156 -0.34375 -12.085938 0 -12.828125 C 0.351562 -13.578125 0.863281 -14.195312 1.53125 -14.6875 C 2.195312 -15.175781 2.957031 -15.460938 3.8125 -15.546875 Z M 6.875 -5.1875 L 6.3125 -11.046875 C 6.257812 -11.597656 6.007812 -12.054688 5.5625 -12.421875 C 5.125 -12.785156 4.625 -12.941406 4.0625 -12.890625 C 3.507812 -12.828125 3.050781 -12.578125 2.6875 -12.140625 C 2.332031 -11.703125 2.179688 -11.207031 2.234375 -10.65625 L 2.796875 -4.796875 C 2.859375 -4.222656 3.109375 -3.753906 3.546875 -3.390625 C 3.984375 -3.035156 4.476562 -2.890625 5.03125 -2.953125 C 5.59375 -3.003906 6.054688 -3.242188 6.421875 -3.671875 C 6.785156 -4.109375 6.9375 -4.613281 6.875 -5.1875 Z M 6.875 -5.1875 "/></g></g></g><g fill="#202258" fill-opacity="1"><g transform="translate(135.57452, 234.495592)"><g><path d="M 10.515625 -15.9375 C 10.660156 -15.945312 10.738281 -15.890625 10.75 -15.765625 L 10.921875 -13.515625 C 10.929688 -13.367188 10.863281 -13.289062 10.71875 -13.28125 L 9.96875 -13.21875 L 10.578125 -5.328125 C 10.640625 -4.460938 10.488281 -3.660156 10.125 -2.921875 C 9.769531 -2.191406 9.25 -1.585938 8.5625 -1.109375 C 7.882812 -0.628906 7.113281 -0.359375 6.25 -0.296875 C 5.382812 -0.222656 4.582031 -0.367188 3.84375 -0.734375 C 3.101562 -1.109375 2.492188 -1.628906 2.015625 -2.296875 C 1.535156 -2.972656 1.265625 -3.742188 1.203125 -4.609375 L 0.59375 -12.5 L -0.15625 -12.4375 C -0.28125 -12.425781 -0.347656 -12.492188 -0.359375 -12.640625 L -0.53125 -14.890625 C -0.539062 -15.015625 -0.484375 -15.082031 -0.359375 -15.09375 L 3.78125 -15.40625 C 3.925781 -15.414062 4.003906 -15.359375 4.015625 -15.234375 L 4.1875 -12.984375 C 4.195312 -12.835938 4.128906 -12.757812 3.984375 -12.75 L 3.234375 -12.703125 L 3.84375 -4.8125 C 3.882812 -4.238281 4.117188 -3.769531 4.546875 -3.40625 C 4.984375 -3.050781 5.484375 -2.894531 6.046875 -2.9375 C 6.617188 -2.976562 7.082031 -3.207031 7.4375 -3.625 C 7.800781 -4.050781 7.960938 -4.550781 7.921875 -5.125 L 7.3125 -13.015625 L 6.578125 -12.953125 C 6.441406 -12.941406 6.367188 -13.007812 6.359375 -13.15625 L 6.1875 -15.40625 C 6.175781 -15.53125 6.238281 -15.597656 6.375 -15.609375 Z M 10.515625 -15.9375 "/></g></g></g><g fill="#202258" fill-opacity="1"><g transform="translate(147.950609, 233.548002)"><g><path d="M 4.5625 -12.734375 C 4.007812 -12.691406 3.546875 -12.457031 3.171875 -12.03125 C 2.796875 -11.601562 2.625 -11.113281 2.65625 -10.5625 L 2.984375 -4.6875 C 3.023438 -4.113281 3.253906 -3.640625 3.671875 -3.265625 C 4.097656 -2.890625 4.585938 -2.722656 5.140625 -2.765625 C 5.703125 -2.796875 6.171875 -3.019531 6.546875 -3.4375 C 6.929688 -3.851562 7.101562 -4.347656 7.0625 -4.921875 C 7.0625 -5.046875 7.128906 -5.113281 7.265625 -5.125 L 9.515625 -5.265625 C 9.578125 -5.273438 9.625 -5.257812 9.65625 -5.21875 C 9.695312 -5.1875 9.71875 -5.140625 9.71875 -5.078125 C 9.769531 -4.210938 9.601562 -3.410156 9.21875 -2.671875 C 8.832031 -1.941406 8.296875 -1.34375 7.609375 -0.875 C 6.929688 -0.414062 6.160156 -0.164062 5.296875 -0.125 C 4.441406 -0.0703125 3.644531 -0.234375 2.90625 -0.609375 C 2.175781 -0.992188 1.578125 -1.523438 1.109375 -2.203125 C 0.648438 -2.890625 0.394531 -3.664062 0.34375 -4.53125 L 0.015625 -10.421875 C -0.0351562 -11.285156 0.125 -12.082031 0.5 -12.8125 C 0.882812 -13.550781 1.414062 -14.148438 2.09375 -14.609375 C 2.78125 -15.078125 3.550781 -15.335938 4.40625 -15.390625 C 5.125 -15.429688 5.816406 -15.304688 6.484375 -15.015625 L 6.46875 -15.28125 C 6.457031 -15.40625 6.519531 -15.472656 6.65625 -15.484375 L 8.90625 -15.609375 C 9.050781 -15.617188 9.128906 -15.5625 9.140625 -15.4375 L 9.40625 -10.953125 C 9.40625 -10.804688 9.332031 -10.726562 9.1875 -10.71875 L 6.9375 -10.59375 C 6.800781 -10.582031 6.734375 -10.648438 6.734375 -10.796875 C 6.703125 -11.347656 6.472656 -11.816406 6.046875 -12.203125 C 5.617188 -12.585938 5.125 -12.765625 4.5625 -12.734375 Z M 4.5625 -12.734375 "/></g></g></g><g fill="#202258" fill-opacity="1"><g transform="translate(158.459691, 232.939711)"><g><path d="M 7.3125 -8.078125 C 8.050781 -7.765625 8.648438 -7.269531 9.109375 -6.59375 C 9.566406 -5.925781 9.8125 -5.191406 9.84375 -4.390625 C 9.875 -3.628906 9.71875 -2.921875 9.375 -2.265625 C 9.039062 -1.609375 8.554688 -1.082031 7.921875 -0.6875 C 7.296875 -0.289062 6.601562 -0.078125 5.84375 -0.046875 C 4.914062 -0.00390625 4.054688 -0.1875 3.265625 -0.59375 L 3.28125 -0.125 C 3.289062 0.0195312 3.222656 0.09375 3.078125 0.09375 L 0.8125 0.1875 C 0.6875 0.1875 0.617188 0.113281 0.609375 -0.03125 L 0.40625 -5.015625 C 0.40625 -5.148438 0.46875 -5.21875 0.59375 -5.21875 C 0.601562 -5.21875 0.617188 -5.21875 0.640625 -5.21875 L 2.90625 -5.3125 C 3.03125 -5.3125 3.09375 -5.25 3.09375 -5.125 C 3.113281 -4.644531 3.242188 -4.21875 3.484375 -3.84375 C 3.734375 -3.476562 4.050781 -3.1875 4.4375 -2.96875 C 4.832031 -2.757812 5.269531 -2.664062 5.75 -2.6875 C 6.164062 -2.707031 6.515625 -2.875 6.796875 -3.1875 C 7.085938 -3.5 7.226562 -3.863281 7.21875 -4.28125 C 7.1875 -4.894531 6.898438 -5.335938 6.359375 -5.609375 L 2.71875 -7.234375 C 1.96875 -7.546875 1.363281 -8.03125 0.90625 -8.6875 C 0.445312 -9.351562 0.203125 -10.085938 0.171875 -10.890625 C 0.140625 -11.671875 0.300781 -12.378906 0.65625 -13.015625 C 1.007812 -13.660156 1.492188 -14.1875 2.109375 -14.59375 C 2.722656 -15 3.421875 -15.21875 4.203125 -15.25 C 5.097656 -15.289062 5.945312 -15.113281 6.75 -14.71875 L 6.734375 -15.171875 C 6.722656 -15.296875 6.789062 -15.359375 6.9375 -15.359375 L 9.15625 -15.453125 C 9.300781 -15.460938 9.378906 -15.40625 9.390625 -15.28125 L 9.59375 -10.28125 C 9.59375 -10.15625 9.519531 -10.085938 9.375 -10.078125 L 7.15625 -9.984375 C 7.007812 -9.984375 6.9375 -10.046875 6.9375 -10.171875 L 6.921875 -10.296875 C 6.867188 -10.972656 6.585938 -11.535156 6.078125 -11.984375 C 5.566406 -12.429688 4.976562 -12.640625 4.3125 -12.609375 C 3.875 -12.597656 3.507812 -12.429688 3.21875 -12.109375 C 2.9375 -11.796875 2.800781 -11.421875 2.8125 -10.984375 C 2.84375 -10.378906 3.140625 -9.953125 3.703125 -9.703125 Z M 7.3125 -8.078125 "/></g></g></g><g fill="#202258" fill-opacity="1"><g transform="translate(169.001985, 232.532834)"><g/></g></g><g fill="#202258" fill-opacity="1"><g transform="translate(175.272795, 232.34641)"><g><path d="M 11.671875 -2.5625 C 11.816406 -2.570312 11.894531 -2.515625 11.90625 -2.390625 L 11.921875 -0.125 C 11.921875 0 11.847656 0.0664062 11.703125 0.078125 L 8.453125 0.109375 C 8.347656 0.109375 8.28125 0.0625 8.25 -0.03125 L 7.875 -1.65625 L 4.609375 -1.625 L 4.265625 0 C 4.234375 0.09375 4.171875 0.140625 4.078125 0.140625 L 0.796875 0.171875 C 0.671875 0.179688 0.609375 0.125 0.609375 0 L 0.59375 -2.265625 C 0.582031 -2.390625 0.640625 -2.457031 0.765625 -2.46875 L 2.078125 -2.46875 L 4.234375 -12.453125 L 4.03125 -12.453125 C 3.882812 -12.453125 3.8125 -12.523438 3.8125 -12.671875 L 3.796875 -14.9375 C 3.785156 -15.0625 3.851562 -15.125 4 -15.125 L 7.25 -15.15625 C 7.351562 -15.15625 7.425781 -15.109375 7.46875 -15.015625 L 10.375 -2.5625 Z M 5.171875 -4.265625 L 7.234375 -4.296875 L 6.15625 -8.890625 Z M 5.171875 -4.265625 "/></g></g></g><g fill="#202258" fill-opacity="1"><g transform="translate(187.663172, 232.230896)"><g><path d="M 5.40625 -12.390625 C 4.84375 -12.390625 4.359375 -12.1875 3.953125 -11.78125 C 3.554688 -11.382812 3.351562 -10.910156 3.34375 -10.359375 L 3.296875 -4.46875 C 3.285156 -3.894531 3.476562 -3.40625 3.875 -3 C 4.269531 -2.601562 4.75 -2.40625 5.3125 -2.40625 C 5.875 -2.394531 6.359375 -2.585938 6.765625 -2.984375 C 7.171875 -3.378906 7.378906 -3.863281 7.390625 -4.4375 C 7.390625 -4.570312 7.457031 -4.632812 7.59375 -4.625 L 9.84375 -4.625 C 9.90625 -4.625 9.953125 -4.601562 9.984375 -4.5625 C 10.023438 -4.519531 10.046875 -4.46875 10.046875 -4.40625 C 10.035156 -3.539062 9.8125 -2.753906 9.375 -2.046875 C 8.945312 -1.347656 8.375 -0.789062 7.65625 -0.375 C 6.945312 0.0390625 6.160156 0.242188 5.296875 0.234375 C 4.429688 0.222656 3.644531 0.00390625 2.9375 -0.421875 C 2.238281 -0.847656 1.679688 -1.414062 1.265625 -2.125 C 0.847656 -2.84375 0.644531 -3.632812 0.65625 -4.5 L 0.703125 -10.40625 C 0.710938 -11.269531 0.929688 -12.050781 1.359375 -12.75 C 1.785156 -13.457031 2.351562 -14.019531 3.0625 -14.4375 C 3.78125 -14.863281 4.570312 -15.070312 5.4375 -15.0625 C 6.15625 -15.050781 6.835938 -14.882812 7.484375 -14.5625 L 7.484375 -14.828125 C 7.484375 -14.953125 7.550781 -15.007812 7.6875 -15 L 9.9375 -14.984375 C 10.082031 -14.984375 10.15625 -14.921875 10.15625 -14.796875 L 10.109375 -10.296875 C 10.109375 -10.148438 10.035156 -10.078125 9.890625 -10.078125 L 7.640625 -10.09375 C 7.503906 -10.101562 7.4375 -10.179688 7.4375 -10.328125 C 7.445312 -10.878906 7.25 -11.359375 6.84375 -11.765625 C 6.445312 -12.171875 5.96875 -12.378906 5.40625 -12.390625 Z M 5.40625 -12.390625 "/></g></g></g><g fill="#202258" fill-opacity="1"><g transform="translate(198.179202, 232.319286)"><g><path d="M 11.78125 -2.109375 C 11.925781 -2.109375 11.992188 -2.046875 11.984375 -1.921875 L 11.921875 0.34375 C 11.921875 0.46875 11.847656 0.53125 11.703125 0.53125 L 8.453125 0.4375 C 8.347656 0.425781 8.28125 0.375 8.25 0.28125 L 7.9375 -1.34375 L 4.671875 -1.4375 L 4.265625 0.171875 C 4.234375 0.265625 4.171875 0.304688 4.078125 0.296875 L 0.796875 0.203125 C 0.671875 0.203125 0.609375 0.140625 0.609375 0.015625 L 0.671875 -2.25 C 0.679688 -2.375 0.75 -2.4375 0.875 -2.4375 L 2.1875 -2.390625 L 4.71875 -12.28125 L 4.515625 -12.28125 C 4.367188 -12.289062 4.296875 -12.367188 4.296875 -12.515625 L 4.359375 -14.78125 C 4.367188 -14.90625 4.445312 -14.960938 4.59375 -14.953125 L 7.84375 -14.859375 C 7.945312 -14.859375 8.007812 -14.8125 8.03125 -14.71875 L 10.484375 -2.15625 Z M 5.34375 -4.0625 L 7.40625 -4.015625 L 6.5 -8.65625 Z M 5.34375 -4.0625 "/></g></g></g><g fill="#202258" fill-opacity="1"><g transform="translate(210.559834, 232.678465)"><g><path d="M 6.984375 -14.75 C 7.847656 -14.707031 8.625 -14.457031 9.3125 -14 C 10.007812 -13.550781 10.546875 -12.957031 10.921875 -12.21875 C 11.304688 -11.488281 11.476562 -10.695312 11.4375 -9.84375 L 11.15625 -3.96875 C 11.113281 -3.101562 10.863281 -2.328125 10.40625 -1.640625 C 9.957031 -0.953125 9.363281 -0.410156 8.625 -0.015625 C 7.894531 0.367188 7.097656 0.539062 6.234375 0.5 L 3.984375 0.40625 L 0.78125 0.25 C 0.65625 0.25 0.597656 0.175781 0.609375 0.03125 L 0.71875 -2.234375 C 0.726562 -2.359375 0.796875 -2.421875 0.921875 -2.421875 L 1.671875 -2.375 L 2.15625 -12.3125 L 1.40625 -12.359375 C 1.28125 -12.359375 1.21875 -12.429688 1.21875 -12.578125 L 1.34375 -14.84375 C 1.34375 -14.96875 1.40625 -15.03125 1.53125 -15.03125 L 4.734375 -14.875 Z M 8.5 -4.125 L 8.78125 -9.9375 C 8.8125 -10.507812 8.640625 -11.003906 8.265625 -11.421875 C 7.890625 -11.835938 7.421875 -12.054688 6.859375 -12.078125 L 4.8125 -12.1875 L 4.328125 -2.28125 L 6.375 -2.171875 C 6.9375 -2.148438 7.425781 -2.328125 7.84375 -2.703125 C 8.257812 -3.085938 8.476562 -3.5625 8.5 -4.125 Z M 8.5 -4.125 "/></g></g></g><g fill="#202258" fill-opacity="1"><g transform="translate(221.989131, 233.235701)"><g><path d="M 9.25 -10.859375 C 9.125 -10.867188 9.066406 -10.941406 9.078125 -11.078125 L 9.125 -11.84375 L 5.03125 -12.125 L 4.78125 -8.46875 L 7.96875 -8.25 C 8.09375 -8.238281 8.148438 -8.160156 8.140625 -8.015625 L 8 -5.78125 C 7.988281 -5.65625 7.921875 -5.597656 7.796875 -5.609375 L 4.609375 -5.828125 L 4.359375 -2.171875 L 8.453125 -1.890625 L 8.5 -2.640625 C 8.507812 -2.765625 8.578125 -2.820312 8.703125 -2.8125 L 10.953125 -2.65625 C 11.085938 -2.644531 11.148438 -2.578125 11.140625 -2.453125 L 10.921875 0.75 C 10.910156 0.875 10.835938 0.929688 10.703125 0.921875 L 4 0.46875 C 4 0.488281 3.988281 0.492188 3.96875 0.484375 L 0.78125 0.265625 C 0.65625 0.265625 0.597656 0.191406 0.609375 0.046875 L 0.765625 -2.21875 C 0.773438 -2.34375 0.84375 -2.40625 0.96875 -2.40625 L 1.71875 -2.34375 L 2.390625 -12.265625 L 1.640625 -12.328125 C 1.515625 -12.328125 1.457031 -12.398438 1.46875 -12.546875 L 1.625 -14.8125 C 1.632812 -14.9375 1.703125 -15 1.828125 -15 L 11.75 -14.3125 C 11.882812 -14.300781 11.945312 -14.234375 11.9375 -14.109375 L 11.71875 -10.890625 C 11.707031 -10.753906 11.632812 -10.691406 11.5 -10.703125 Z M 9.25 -10.859375 "/></g></g></g><g fill="#202258" fill-opacity="1"><g transform="translate(233.407145, 233.991567)"><g><path d="M 15.75 -11.03125 L 15 -11.09375 L 14.09375 -1.171875 L 14.84375 -1.109375 C 14.988281 -1.085938 15.054688 -1.015625 15.046875 -0.890625 L 14.84375 1.359375 C 14.832031 1.503906 14.753906 1.566406 14.609375 1.546875 L 10.46875 1.171875 C 10.34375 1.160156 10.285156 1.082031 10.296875 0.9375 L 10.5 -1.3125 C 10.507812 -1.4375 10.578125 -1.492188 10.703125 -1.484375 L 11.46875 -1.40625 L 12.046875 -7.734375 L 8 -0.4375 C 7.96875 -0.351562 7.90625 -0.316406 7.8125 -0.328125 C 7.726562 -0.335938 7.671875 -0.382812 7.640625 -0.46875 L 4.984375 -8.390625 L 4.40625 -2.0625 L 5.15625 -1.984375 C 5.300781 -1.972656 5.367188 -1.90625 5.359375 -1.78125 L 5.15625 0.46875 C 5.144531 0.613281 5.066406 0.679688 4.921875 0.671875 L 0.78125 0.296875 C 0.65625 0.285156 0.597656 0.207031 0.609375 0.0625 L 0.8125 -2.1875 C 0.820312 -2.3125 0.890625 -2.367188 1.015625 -2.359375 L 1.765625 -2.296875 L 2.671875 -12.21875 L 1.921875 -12.28125 C 1.796875 -12.289062 1.738281 -12.367188 1.75 -12.515625 L 1.953125 -14.765625 C 1.972656 -14.890625 2.046875 -14.945312 2.171875 -14.9375 L 5.578125 -14.640625 C 5.671875 -14.628906 5.722656 -14.582031 5.734375 -14.5 L 8.390625 -6.59375 L 12.40625 -13.890625 C 12.457031 -13.960938 12.53125 -13.992188 12.625 -13.984375 L 16 -13.6875 C 16.144531 -13.664062 16.207031 -13.59375 16.1875 -13.46875 L 15.984375 -11.21875 C 15.972656 -11.070312 15.894531 -11.007812 15.75 -11.03125 Z M 15.75 -11.03125 "/></g></g></g><g fill="#202258" fill-opacity="1"><g transform="translate(248.701624, 235.39991)"><g><path d="M 13.34375 -13.65625 C 13.488281 -13.632812 13.554688 -13.5625 13.546875 -13.4375 L 13.28125 -11.1875 C 13.257812 -11.039062 13.175781 -10.976562 13.03125 -11 L 11.5625 -11.15625 L 7.953125 -2.796875 L 7.8125 -1.578125 L 8.578125 -1.484375 C 8.691406 -1.472656 8.742188 -1.40625 8.734375 -1.28125 L 8.46875 0.96875 C 8.457031 1.09375 8.394531 1.148438 8.28125 1.140625 L 4.140625 0.671875 C 3.992188 0.648438 3.925781 0.578125 3.9375 0.453125 L 4.203125 -1.796875 C 4.210938 -1.921875 4.289062 -1.972656 4.4375 -1.953125 L 5.1875 -1.875 L 5.328125 -3.09375 L 3.671875 -12.0625 L 2.203125 -12.234375 C 2.078125 -12.253906 2.023438 -12.335938 2.046875 -12.484375 L 2.3125 -14.734375 C 2.320312 -14.859375 2.390625 -14.910156 2.515625 -14.890625 L 5.796875 -14.515625 C 5.796875 -14.515625 5.804688 -14.515625 5.828125 -14.515625 L 7.21875 -14.359375 C 7.351562 -14.335938 7.414062 -14.265625 7.40625 -14.140625 L 7.140625 -11.890625 C 7.117188 -11.742188 7.039062 -11.679688 6.90625 -11.703125 L 6.4375 -11.75 L 7.171875 -7.6875 L 8.8125 -11.484375 L 8.34375 -11.53125 C 8.207031 -11.550781 8.148438 -11.632812 8.171875 -11.78125 L 8.4375 -14.03125 C 8.445312 -14.15625 8.519531 -14.207031 8.65625 -14.1875 L 10.03125 -14.03125 C 10.050781 -14.03125 10.0625 -14.03125 10.0625 -14.03125 Z M 13.34375 -13.65625 "/></g></g></g></svg>